<?xml version="1.0" encoding="UTF-8" standalone="no"?>
<!DOCTYPE svg PUBLIC "-//W3C//DTD SVG 1.1//EN"
 "http://www.w3.org/Graphics/SVG/1.1/DTD/svg11.dtd">
<!-- Generated by graphviz version 3.0.0 (20220226.1711)
 -->
<!-- Pages: 1 -->
<svg width="383pt" height="222pt"
 viewBox="0.00 0.00 382.65 222.45" xmlns="http://www.w3.org/2000/svg" xmlns:xlink="http://www.w3.org/1999/xlink">
<g id="graph0" class="graph" transform="scale(1 1) rotate(0) translate(4 218.45)">
<polygon fill="white" stroke="transparent" points="-4,4 -4,-218.45 378.65,-218.45 378.65,4 -4,4"/>
<!-- left -->
<g id="node1" class="node">
<title>left</title>
<polygon fill="lightgray" stroke="black" points="93.16,-214.45 64.16,-214.45 64.16,-196.45 93.16,-196.45 93.16,-214.45"/>
<text text-anchor="middle" x="78.66" y="-203.25" font-family="Times New Roman,serif" font-size="9.00">left</text>
</g>
<!-- left_arr -->
<g id="node6" class="node">
<title>left_arr</title>
<ellipse fill="lightblue" stroke="black" cx="211.66" cy="-33.23" rx="30.31" ry="30.31"/>
<text text-anchor="middle" x="211.66" y="-31.03" font-family="Times New Roman,serif" font-size="9.00">left_arr</text>
</g>
<!-- left&#45;&gt;left_arr -->
<g id="edge7" class="edge">
<title>left&#45;&gt;left_arr</title>
<path fill="none" stroke="green" stroke-width="0.14" d="M78.35,-196.19C78.07,-177.65 79.73,-132.03 100.66,-102.47 118.54,-77.2 149.02,-59.45 173.52,-48.4"/>
<polygon fill="green" stroke="green" stroke-width="0.14" points="175.12,-51.52 182.92,-44.35 172.35,-45.1 175.12,-51.52"/>
</g>
<!-- right_arr -->
<g id="node8" class="node">
<title>right_arr</title>
<ellipse fill="lightblue" stroke="black" cx="81.66" cy="-33.23" rx="33.47" ry="33.47"/>
<text text-anchor="middle" x="81.66" y="-31.03" font-family="Times New Roman,serif" font-size="9.00">right_arr</text>
</g>
<!-- left&#45;&gt;right_arr -->
<g id="edge14" class="edge">
<title>left&#45;&gt;right_arr</title>
<path fill="none" stroke="green" stroke-width="0.23" d="M63.97,-200.02C47.14,-194.06 20.39,-181.68 8.66,-160.45 -3.8,-137.9 -1.6,-126.11 8.66,-102.47 16.34,-84.78 31.12,-69.58 45.38,-58.05"/>
<polygon fill="green" stroke="green" stroke-width="0.23" points="47.86,-60.56 53.66,-51.7 43.6,-55.01 47.86,-60.56"/>
</g>
<!-- 51 -->
<g id="node9" class="node">
<title>51</title>
<ellipse fill="white" stroke="black" cx="127.66" cy="-131.46" rx="18.27" ry="18.27"/>
<text text-anchor="middle" x="127.66" y="-129.26" font-family="Times New Roman,serif" font-size="9.00">51</text>
</g>
<!-- left&#45;&gt;51 -->
<g id="edge15" class="edge">
<title>left&#45;&gt;51</title>
<path fill="none" stroke="green" stroke-width="0.62" d="M84.28,-196.19C90.96,-186.38 102.4,-169.58 111.85,-155.69"/>
<polygon fill="green" stroke="green" stroke-width="0.62" points="114.97,-157.32 117.7,-147.09 109.18,-153.39 114.97,-157.32"/>
</g>
<!-- right -->
<g id="node2" class="node">
<title>right</title>
<polygon fill="lightgray" stroke="black" points="144.16,-214.45 111.16,-214.45 111.16,-196.45 144.16,-196.45 144.16,-214.45"/>
<text text-anchor="middle" x="127.66" y="-203.25" font-family="Times New Roman,serif" font-size="9.00">right</text>
</g>
<!-- right&#45;&gt;left_arr -->
<g id="edge13" class="edge">
<title>right&#45;&gt;left_arr</title>
<path fill="none" stroke="green" stroke-width="0.44" d="M133.16,-196.2C138.85,-187.49 147.86,-173.28 154.66,-160.45 170.23,-131.06 185.62,-96.58 196.47,-71.09"/>
<polygon fill="green" stroke="green" stroke-width="0.44" points="199.73,-72.37 200.4,-61.79 193.29,-69.64 199.73,-72.37"/>
</g>
<!-- right&#45;&gt;51 -->
<g id="edge6" class="edge">
<title>right&#45;&gt;51</title>
<path fill="none" stroke="green" stroke-width="0.18" stroke-dasharray="1,5" d="M127.66,-196.19C127.66,-187.42 127.66,-173.07 127.66,-160.21"/>
<polygon fill="green" stroke="green" stroke-width="0.18" points="131.16,-159.91 127.66,-149.91 124.16,-159.91 131.16,-159.91"/>
</g>
<!-- 52 -->
<g id="node10" class="node">
<title>52</title>
<ellipse fill="white" stroke="black" cx="35.66" cy="-131.46" rx="18.27" ry="18.27"/>
<text text-anchor="middle" x="35.66" y="-129.26" font-family="Times New Roman,serif" font-size="9.00">52</text>
</g>
<!-- right&#45;&gt;52 -->
<g id="edge9" class="edge">
<title>right&#45;&gt;52</title>
<path fill="none" stroke="green" stroke-width="0.12" d="M117.11,-196.19C102.7,-184.92 76.52,-164.43 57.73,-149.73"/>
<polygon fill="green" stroke="green" stroke-width="0.12" points="59.71,-146.84 49.68,-143.43 55.4,-152.35 59.71,-146.84"/>
</g>
<!-- top left -->
<g id="node3" class="node">
<title>top left</title>
<polygon fill="lightgray" stroke="black" points="206.66,-214.45 162.66,-214.45 162.66,-196.45 206.66,-196.45 206.66,-214.45"/>
<text text-anchor="middle" x="184.66" y="-203.25" font-family="Times New Roman,serif" font-size="9.00">top left</text>
</g>
<!-- top left&#45;&gt;left_arr -->
<g id="edge8" class="edge">
<title>top left&#45;&gt;left_arr</title>
<path fill="none" stroke="red" stroke-width="0.56" d="M196.19,-196.19C206.13,-188.3 219.77,-175.41 225.66,-160.45 236.82,-132.11 231.85,-97.6 224.92,-71.83"/>
<polygon fill="red" stroke="red" stroke-width="0.56" points="228.24,-70.69 222.09,-62.06 221.51,-72.64 228.24,-70.69"/>
</g>
<!-- top left&#45;&gt;right_arr -->
<g id="edge1" class="edge">
<title>top left&#45;&gt;right_arr</title>
<path fill="none" stroke="green" stroke-width="0.4" d="M183.73,-196.18C181.37,-178.01 173.94,-133.73 154.66,-102.47 144.69,-86.3 129.89,-71.48 116.22,-59.81"/>
<polygon fill="green" stroke="green" stroke-width="0.4" points="118.29,-56.98 108.34,-53.32 113.83,-62.38 118.29,-56.98"/>
</g>
<!-- top left&#45;&gt;51 -->
<g id="edge2" class="edge">
<title>top left&#45;&gt;51</title>
<path fill="none" stroke="red" stroke-width="0.14" d="M178.12,-196.19C170.05,-186 156.03,-168.29 144.81,-154.12"/>
<polygon fill="red" stroke="red" stroke-width="0.14" points="147.55,-151.94 138.6,-146.27 142.06,-156.29 147.55,-151.94"/>
</g>
<!-- top right -->
<g id="node4" class="node">
<title>top right</title>
<polygon fill="lightgray" stroke="black" points="310.66,-214.45 262.66,-214.45 262.66,-196.45 310.66,-196.45 310.66,-214.45"/>
<text text-anchor="middle" x="286.66" y="-203.25" font-family="Times New Roman,serif" font-size="9.00">top right</text>
</g>
<!-- top right&#45;&gt;left_arr -->
<g id="edge3" class="edge">
<title>top right&#45;&gt;left_arr</title>
<path fill="none" stroke="green" stroke-width="0.33" d="M283.18,-196.23C275.81,-178.87 258.04,-137.2 242.66,-102.47 238.02,-91.99 232.91,-80.65 228.19,-70.28"/>
<polygon fill="green" stroke="green" stroke-width="0.33" points="231.33,-68.73 224,-61.08 224.96,-71.63 231.33,-68.73"/>
</g>
<!-- up_arr -->
<g id="node7" class="node">
<title>up_arr</title>
<ellipse fill="lightblue" stroke="black" cx="345.66" cy="-131.46" rx="28.98" ry="28.98"/>
<text text-anchor="middle" x="345.66" y="-129.26" font-family="Times New Roman,serif" font-size="9.00">up_arr</text>
</g>
<!-- top right&#45;&gt;up_arr -->
<g id="edge16" class="edge">
<title>top right&#45;&gt;up_arr</title>
<path fill="none" stroke="red" stroke-width="0.21" d="M293.43,-196.19C300.23,-187.89 311.13,-174.6 321.21,-162.29"/>
<polygon fill="red" stroke="red" stroke-width="0.21" points="324.04,-164.36 327.67,-154.41 318.62,-159.93 324.04,-164.36"/>
</g>
<!-- top right&#45;&gt;51 -->
<g id="edge5" class="edge">
<title>top right&#45;&gt;51</title>
<path fill="none" stroke="green" stroke-width="0.24" d="M268.73,-196.33C240.61,-183.6 186.02,-158.89 153.62,-144.21"/>
<polygon fill="green" stroke="green" stroke-width="0.24" points="154.88,-140.94 144.32,-140 151.99,-147.32 154.88,-140.94"/>
</g>
<!-- front -->
<g id="node5" class="node">
<title>front</title>
<polygon fill="lightgray" stroke="black" points="364.16,-214.45 329.16,-214.45 329.16,-196.45 364.16,-196.45 364.16,-214.45"/>
<text text-anchor="middle" x="346.66" y="-203.25" font-family="Times New Roman,serif" font-size="9.00">front</text>
</g>
<!-- front&#45;&gt;up_arr -->
<g id="edge10" class="edge">
<title>front&#45;&gt;up_arr</title>
<path fill="none" stroke="green" stroke-width="0.23" d="M346.54,-196.19C346.46,-189.72 346.32,-180.22 346.19,-170.52"/>
<polygon fill="green" stroke="green" stroke-width="0.23" points="349.69,-170.4 346.05,-160.45 342.69,-170.5 349.69,-170.4"/>
</g>
<!-- 51&#45;&gt;left_arr -->
<g id="edge12" class="edge">
<title>51&#45;&gt;left_arr</title>
<path fill="none" stroke="red" stroke-width="0.14" d="M139.34,-117.08C151.15,-103.56 169.8,-82.19 185.2,-64.55"/>
<polygon fill="red" stroke="red" stroke-width="0.14" points="188.07,-66.58 192.01,-56.74 182.8,-61.97 188.07,-66.58"/>
</g>
<!-- 51&#45;&gt;right_arr -->
<g id="edge11" class="edge">
<title>51&#45;&gt;right_arr</title>
<path fill="none" stroke="green" stroke-width="0.1" d="M120.06,-114.57C114.66,-103.27 107.17,-87.59 100.23,-73.07"/>
<polygon fill="green" stroke="green" stroke-width="0.1" points="103.25,-71.28 95.78,-63.76 96.93,-74.29 103.25,-71.28"/>
</g>
<!-- 52&#45;&gt;right_arr -->
<g id="edge4" class="edge">
<title>52&#45;&gt;right_arr</title>
<path fill="none" stroke="red" stroke-width="0.29" d="M43.26,-114.57C48.66,-103.27 56.15,-87.59 63.09,-73.07"/>
<polygon fill="red" stroke="red" stroke-width="0.29" points="66.39,-74.29 67.54,-63.76 60.07,-71.28 66.39,-74.29"/>
</g>
</g>
</svg>
